<svg id="milker_1" xmlns="http://www.w3.org/2000/svg" xmlns:xlink="http://www.w3.org/1999/xlink" viewBox="0 0 640 480" shape-rendering="geometricPrecision" text-rendering="geometricPrecision"><g id="milker_1-g1"><rect id="milker_1-rect1" width="640" height="480" rx="0" ry="0" fill="rgb(121,163,248)" stroke="none" stroke-width="0"/><rect id="milker_1-rect2" width="640" height="109.160935" rx="0" ry="0" transform="matrix(1 0 0 1 0 370.839066)" fill="rgb(18,163,49)" stroke="none" stroke-width="0"/></g><rect id="milker_1-leg4" width="24.759285" height="84.731775" rx="0" ry="0" transform="matrix(1 0 0 1 320.000001 359.834939)" fill="rgb(252,253,255)" stroke="none" stroke-width="0"/><rect id="milker_1-leg3" width="24.759285" height="84.731775" rx="0" ry="0" transform="matrix(1 0 0 1 369.518572 371.389271)" fill="rgb(249,250,252)" stroke="none" stroke-width="0"/><rect id="milker_1-leg2" width="24.759285" height="84.731775" rx="0" ry="0" transform="matrix(1 0 0 1 480.66025 328.473179)" fill="rgb(210,219,237)" stroke="none" stroke-width="0"/><ellipse id="milker_1-utter" rx="34.662999" ry="27.510317" transform="matrix(1 0 0 1 505.419535 374.69051)" fill="rgb(251,93,228)" stroke="none" stroke-width="0"/><rect id="milker_1-leg1" width="24.759285" height="84.731775" rx="0" ry="0" transform="matrix(1 0 0 1 516.973867 354.883081)" fill="rgb(252,253,255)" stroke="none" stroke-width="0"/><ellipse id="milker_1-body" rx="128.748281" ry="78.624484" transform="matrix(1 0 0 1 429.49106 318.624484)" fill="rgb(245,246,250)" stroke="none" stroke-width="0"/><path id="milker_1-rightear" d="M313.94773,206.87758C357.03479,155.17311,373.8559,206.87758,313.94773,206.87758" transform="matrix(-0.563424 -0.826168 0.826168 -0.563424 303.961842 573.939268)" fill="rgb(241,233,233)" stroke="none" stroke-width="3"/><ellipse id="milker_1-head" rx="46.767538" ry="55.570839" transform="matrix(1 0 0 1 297.991748 240)" fill="rgb(250,250,250)" stroke="none" stroke-width="0"/><path id="milker_1-leftear" d="M313.94773,206.87758C357.03479,155.17311,373.8559,206.87758,313.94773,206.87758" transform="matrix(1 0 0 1 18.431914 7.356637)" fill="rgb(241,233,233)" stroke="none" stroke-width="3"/><path id="milker_1-leftear2" d="M313.94773,206.87758C357.03479,155.17311,373.8559,206.87758,313.94773,206.87758" transform="matrix(1 0 0 1 18.431914 7.356637)" fill="rgb(241,233,233)" stroke="none" stroke-width="3"/><ellipse id="milker_1-snout" rx="35.318756" ry="34.057771" transform="matrix(1 0 0 1 277.739664 274.057772)" fill="rgb(177,177,108)" stroke="none" stroke-width="0"/><ellipse id="milker_1-righteye" rx="9.730816" ry="12.34266" transform="matrix(1 0 0 1 277.37489 222.045236)" fill="rgb(1,9,23)" stroke="none" stroke-width="0"/><ellipse id="milker_1-lefteye" rx="6.15782" ry="9.958732" transform="matrix(1 0 0 1 306.900599 230.041268)" fill="rgb(0,4,11)" stroke="none" stroke-width="0"/><ellipse id="milker_1-spot1" rx="142.778541" ry="55.020633" transform="matrix(0.321773 0 0 -0.3 369.518572 302.118295)" fill="rgb(0,0,0)" stroke="none" stroke-width="0"/><ellipse id="milker_1-spot2" rx="142.778541" ry="55.020633" transform="matrix(0.321773 0 0 -0.3 483.41123 269.105915)" fill="rgb(0,0,0)" stroke="none" stroke-width="0"/><ellipse id="milker_1-spot3" rx="142.778541" ry="55.020633" transform="matrix(0.321773 0 0 -0.3 475.433339 354.883081)" fill="rgb(0,0,0)" stroke="none" stroke-width="0"/><ellipse id="milker_1-ellipse1" rx="4.683021" ry="8.253095" transform="matrix(1 0 0 1 282.422685 277.35901)" fill="rgb(1,6,16)" stroke="none" stroke-width="0"/><ellipse id="milker_1-ellipse2" rx="4.683021" ry="8.253095" transform="matrix(1 0 0 1 258.422685 271.35901)" fill="rgb(1,6,16)" stroke="none" stroke-width="0"/></svg>